<svg width="85" height="91" viewBox="0 0 85 91" fill="none" xmlns="http://www.w3.org/2000/svg">
<path d="M28.0478 62.6304C25.3617 58.6428 23.7511 53.8385 23.7511 48.6699C23.7511 41.7159 26.5481 35.4738 31.1026 30.9592C31.998 30.0679 32.9488 29.2317 33.9717 28.5225C34.8144 29.4691 35.635 30.5425 36.4777 31.616C35.5823 32.27 34.7396 32.9819 33.9717 33.7629C30.1518 37.5683 27.7567 42.8638 27.7567 48.6699C27.7567 52.6547 28.8905 56.3883 30.8642 59.6087C29.9134 60.6104 29.018 61.6287 28.0478 62.6304ZM59.2752 71.3671C56.1123 72.86 52.5834 73.6244 48.891 73.6244C44.9602 73.6244 41.2484 72.7303 37.9774 71.1297C39.4022 70.3653 40.8465 69.474 42.2186 68.5827C44.3032 69.2919 46.5708 69.6561 48.9104 69.6561C51.5439 69.6561 54.1025 69.1815 56.4255 68.2902C57.3763 69.3471 58.3244 70.3653 59.2752 71.3671ZM69.3129 34.1106C72.2402 38.2057 73.9755 43.2088 73.9755 48.6699C73.9755 55.3866 71.2893 61.5017 66.9372 66.0163C66.4632 64.5234 65.9864 63.0498 65.565 61.5569C68.362 57.9888 69.9892 53.4742 69.9892 48.6699C69.9892 44.5747 68.8582 40.7169 66.8263 37.4938C67.5221 36.3651 68.4175 35.2365 69.3129 34.1106ZM22.9278 7.4259C30.4429 2.73194 39.3468 0 48.891 0C53.1323 0 57.429 0.601578 61.4901 1.65848C65.6038 2.78437 69.5512 4.38766 73.2991 6.53457C74.2499 7.06165 74.5604 8.31999 74.0143 9.26375C73.482 10.2103 72.2207 10.5221 71.2699 9.97571C67.8686 8.00817 64.2316 6.53457 60.4644 5.51631C56.6972 4.49528 52.8218 3.96821 48.891 3.96821C41.1403 3.96821 33.8442 5.93576 27.5183 9.37414C26.623 8.95469 25.6721 8.538 24.7768 8.1903C24.117 7.95574 23.5127 7.71842 22.9278 7.4259ZM10.6253 78.8647C9.14229 76.9551 7.75348 74.9876 6.56426 72.9676C2.32299 65.6686 0 57.3514 0 48.6699C0 35.2365 5.48593 23.0614 14.3344 14.2695C14.9387 13.6707 15.5984 13.014 16.236 12.4869C17.0039 13.014 17.7357 13.5603 18.4481 14.1426C18.814 14.3799 19.1079 14.6697 19.4738 14.907C18.7059 15.6162 17.9187 16.3282 17.1508 17.0539C9.03418 25.1366 4.02505 36.3127 4.02505 48.6699C4.02505 56.6229 6.18172 64.3054 10.0571 70.9476C11.1354 72.8406 12.3801 74.6233 13.6968 76.3535C13.403 76.5908 13.0925 76.8254 12.7986 77.0627L10.6253 78.8647ZM26.44 87.2923C27.3908 87.8939 27.7013 89.075 27.1524 90.0215C26.623 90.968 25.4143 91.2771 24.4635 90.7307C20.3498 88.421 16.7128 85.5621 13.6053 82.2313L15.3406 81.6325C16.1833 81.34 16.9512 81.0309 17.7357 80.7384C20.2971 83.2524 23.2216 85.4545 26.44 87.2923ZM20.1862 70.5282C15.5236 64.4682 12.7266 56.8602 12.7266 48.6699C12.7266 38.6776 16.7849 29.7036 23.3491 23.1718C24.2445 22.2777 25.1953 21.4416 26.221 20.622C27.2439 21.5133 28.1947 22.4598 29.1455 23.3539C28.0672 24.1901 27.1164 25.0814 26.1656 26.0279C20.3137 31.7981 16.7294 39.8063 16.7294 48.6699C16.7294 55.8033 19.1273 62.4482 23.1108 67.7438C22.1433 68.6903 21.1925 69.6368 20.1862 70.5282ZM67.2116 79.6291C61.8366 82.8329 55.5662 84.6156 48.891 84.6156C40.4805 84.6156 32.7104 81.7595 26.623 76.9551C27.9397 76.3535 29.3091 75.6968 30.6813 75.0621C35.8734 78.575 42.1438 80.6474 48.891 80.6474C54.5044 80.6474 59.8074 79.229 64.4146 76.6626C64.9441 77.1897 65.4929 77.7361 65.967 78.3183L67.2116 79.6291ZM77.0109 26.0831C82.02 32.27 85 40.1153 85 48.6699C85 58.5904 80.9417 67.5617 74.4329 74.0962C73.3545 75.1145 72.2208 76.1162 71.0315 77.0627L70.43 75.5174C70.1362 74.753 69.7702 73.9693 69.4792 73.2049C70.1916 72.5481 70.904 71.9493 71.5638 71.2401C77.4128 65.4699 80.9971 57.4618 80.9971 48.6506C80.9971 41.0977 78.4385 34.2182 74.0669 28.8123C75.0372 27.8106 76.0434 26.9192 77.0109 26.0831ZM68.7668 18.602C69.9532 19.3664 71.087 20.2025 72.1653 21.1491L71.6913 21.3864C70.5575 21.9135 69.3683 22.515 68.2345 23.1166C67.8159 22.7524 67.3946 22.4598 66.9178 22.1701C67.7605 21.0966 68.4175 19.9128 68.7668 18.602ZM52.5307 58.7725C56.7166 65.7238 63.6273 71.7313 67.9989 76.5357C67.9989 76.5357 60.7222 58.7174 60.1733 48.6147C58.4352 52.3456 55.6937 55.7315 52.5307 58.7725ZM58.8012 8.2648C63.0424 8.2648 66.4438 11.6508 66.4438 15.8728C66.4438 20.0949 63.0424 23.5333 58.8012 23.5333C54.5599 23.5333 51.1031 20.0949 51.1031 15.8728C51.1031 11.6508 54.5599 8.2648 58.8012 8.2648ZM78.8571 21.1491C78.8571 21.1491 67.1007 25.6637 58.2717 32.3252C60.1733 35.0019 61.4901 37.9132 61.8005 40.8797C65.2545 33.2717 73.4266 25.1918 78.8571 21.1491ZM13.6774 7.37347C13.6774 7.37347 50.6845 32.2175 42.6927 47.486C34.7035 62.7573 14.5173 79.1572 14.5173 79.1572C14.5173 79.1572 54.632 65.0146 60.3563 45.3391C66.0224 25.6637 17.6082 7.37347 13.6774 7.37347ZM48.891 12.6497H48.9464C48.6526 13.6707 48.4697 14.7249 48.4697 15.8535C48.4697 16.0908 48.4697 16.3806 48.4697 16.6179C46.5708 16.6179 44.6497 16.8552 42.8035 17.2195L42.7481 17.1643C41.1403 16.2178 39.5131 15.2713 37.8471 14.3799C41.3038 13.2513 45.0157 12.6497 48.891 12.6497Z" fill="#0E117C"/>
</svg>
