<svg width="355" height="345" viewBox="0 0 355 345" fill="none" xmlns="http://www.w3.org/2000/svg">
<rect width="355" height="355" fill="white"/>
<mask id="mask0_60061_5911" style="mask-type:alpha" maskUnits="userSpaceOnUse" x="0" y="0" width="355" height="355">
<rect width="355" height="355" fill="#D9D9D9"/>
</mask>
<g mask="url(#mask0_60061_5911)">
<path d="M44.375 310.625V281.042L73.9583 251.458V310.625H44.375ZM103.542 310.625V221.875L133.125 192.292V310.625H103.542ZM162.708 310.625V192.292L192.292 222.245V310.625H162.708ZM221.875 310.625V222.245L251.458 192.661V310.625H221.875ZM281.042 310.625V162.708L310.625 133.125V310.625H281.042ZM44.375 234.078V192.292L147.917 88.75L207.083 147.917L310.625 44.375V86.1615L207.083 189.703L147.917 130.536L44.375 234.078Z" fill="#1C1B1F"/>
</g>
</svg>
